<svg version="1.1" id="Layer_1" xmlns="http://www.w3.org/2000/svg" xmlns:xlink="http://www.w3.org/1999/xlink" x="0px" y="0px"
	 width="100%" viewBox="0 0 1024 1024" enable-background="new 0 0 1024 1024" xml:space="preserve">
<path fill="#000000" opacity="1.000000" stroke="none" 
	d="
M911.348511,559.000122 
	C911.348633,603.497253 911.536072,647.495422 911.296692,691.491211 
	C911.047913,737.209106 890.970093,771.723267 851.151733,794.207520 
	C834.260254,803.745544 815.673645,809.085999 796.251709,809.155151 
	C705.092346,809.479919 613.931458,809.357483 522.771057,809.384399 
	C480.440491,809.396851 438.109741,809.444946 395.779633,809.305603 
	C390.817108,809.289307 386.817780,810.589050 382.986725,813.722534 
	C353.201355,838.084045 323.366852,862.386230 293.426910,886.557373 
	C288.143555,890.822693 283.295990,895.622864 277.109863,898.840210 
	C258.150024,908.701172 236.588348,893.649475 237.463913,874.149719 
	C238.322739,855.022949 237.651001,835.827332 237.646027,816.661926 
	C237.644165,809.493774 237.631607,809.625366 230.665497,809.298157 
	C176.690613,806.763000 132.185013,772.703491 119.253448,720.859375 
	C116.919693,711.503174 115.578323,702.013428 115.584465,692.268677 
	C115.677940,543.945129 115.407677,395.620850 115.784904,247.298187 
	C115.911453,197.539978 147.046631,152.775665 197.045868,136.650665 
	C209.645554,132.587204 222.556763,130.642151 235.787186,130.642731 
	C420.608429,130.650864 605.430054,130.447845 790.250610,130.800140 
	C832.296570,130.880295 866.830505,147.687820 891.296326,182.688126 
	C902.146851,198.210724 907.993347,215.792435 910.463989,234.599411 
	C911.535828,242.758453 911.315796,250.882019 911.319336,259.023834 
	C911.362732,358.849243 911.347961,458.674652 911.348511,559.000122 
M558.499939,783.614624 
	C633.988586,783.614014 709.477295,783.680908 784.965637,783.518494 
	C793.407593,783.500366 801.970032,782.858948 810.266846,781.351868 
	C855.155273,773.197998 885.631836,736.394287 885.636414,690.788086 
	C885.650330,550.473755 885.660095,410.159454 885.626526,269.845154 
	C885.624146,259.868195 885.939209,249.897995 884.792236,239.916992 
	C882.289856,218.140518 874.030701,199.124649 858.347351,183.679153 
	C838.452087,164.085617 813.776428,156.472961 786.506653,156.460037 
	C649.874451,156.395279 513.242188,156.499390 376.609985,156.518295 
	C332.283051,156.524429 287.956146,156.450211 243.629211,156.417542 
	C235.131744,156.411270 226.664764,156.935516 218.290955,158.398575 
	C197.067444,162.106674 179.019119,171.700714 164.686203,187.899033 
	C148.337982,206.374939 141.436981,228.455994 141.414886,252.676727 
	C141.282715,397.490295 141.355743,542.304077 141.330139,687.117737 
	C141.328842,694.453613 141.801193,701.751099 143.300751,708.910217 
	C151.024277,745.783447 173.247208,769.264282 209.308136,779.721924 
	C221.899109,783.373291 234.906708,783.579102 247.878876,783.577026 
	C254.126129,783.575989 258.277130,786.401489 261.027252,791.755066 
	C262.653046,794.919922 263.397919,798.230347 263.385803,801.834473 
	C263.310822,824.164551 263.328461,846.494995 263.389038,868.825134 
	C263.394043,870.667419 262.550964,872.890625 265.033813,874.390686 
	C267.571442,873.684631 269.423553,871.696228 271.442841,870.052429 
	C302.575592,844.709229 333.775909,819.447449 364.734802,793.893250 
	C373.247284,786.866699 382.412872,783.463074 393.522614,783.511414 
	C448.180786,783.749451 502.840637,783.616516 558.499939,783.614624 
z"/>
<path fill="#000000" opacity="1.000000" stroke="none" 
	d="
M278.333740,351.303467 
	C299.629578,333.640472 323.601685,324.381104 351.106598,324.619812 
	C368.436798,324.770203 385.769531,324.662720 403.100983,324.624603 
	C409.118988,324.611359 409.645111,324.049042 409.678558,318.000854 
	C409.714478,311.501740 409.509491,304.995728 409.751068,298.505463 
	C409.885773,294.886292 408.739288,292.729523 405.401886,291.043701 
	C392.681427,284.618195 386.587158,273.601074 385.051819,259.875122 
	C383.462585,245.667374 393.814209,229.670853 407.715515,224.285156 
	C428.782867,216.123184 454.090210,226.128464 459.724548,250.664368 
	C462.892883,264.461670 457.176849,280.824493 444.138153,288.902802 
	C437.833130,292.809174 435.437378,297.138702 436.256683,304.196136 
	C436.753021,308.471527 436.342102,312.851349 436.352570,317.184204 
	C436.369568,324.228088 436.758911,324.634583 443.625946,324.638184 
	C461.957397,324.647858 480.289459,324.551208 498.620178,324.666687 
	C549.338318,324.986176 594.575195,362.794678 604.345581,412.773407 
	C605.860107,420.520691 605.778625,420.536591 613.499634,420.652344 
	C624.945129,420.823944 635.299744,428.994202 636.274719,440.485870 
	C637.835510,458.882202 638.429260,477.424438 636.326050,495.819580 
	C634.898132,508.308563 625.376343,516.084717 612.597046,516.290405 
	C608.172424,516.361633 606.533752,517.871338 606.251221,522.414124 
	C604.763245,546.343689 595.669006,567.184509 579.793091,585.072754 
	C561.298157,605.911926 537.880432,617.476379 510.481842,621.111755 
	C505.252899,621.805542 499.949951,622.346313 494.591766,622.333496 
	C446.930267,622.219482 399.265228,622.596008 351.607605,622.150391 
	C317.105408,621.827820 287.765320,608.981873 264.679352,582.955383 
	C249.142334,565.439392 240.878220,544.716675 238.715164,521.526855 
	C238.377686,517.908813 236.758270,516.634766 233.411987,516.361023 
	C216.994980,515.017578 208.679794,505.878113 208.679779,489.312805 
	C208.679779,474.814362 208.672913,460.315857 208.700119,445.817444 
	C208.727997,430.963287 219.056290,420.435608 233.833496,420.788239 
	C238.904068,420.909241 241.031525,419.824463 242.009079,414.331635 
	C246.485764,389.177704 258.771637,368.290039 278.333740,351.303467 
M317.329346,470.147552 
	C324.106171,477.980652 332.753021,482.756104 343.009766,482.464844 
	C363.512451,481.882660 378.907135,464.140778 375.636353,444.584839 
	C372.693359,426.988831 357.564880,415.702789 341.943817,416.631134 
	C313.865662,418.299774 301.005096,448.800446 317.329346,470.147552 
M535.665710,458.182007 
	C537.195129,453.702484 537.198120,449.154602 536.678650,444.482056 
	C534.776550,427.372803 515.726196,413.901367 498.880829,416.958618 
	C484.094452,419.642212 469.981995,432.696655 471.180298,452.292419 
	C472.102264,467.369934 486.587372,483.082581 503.959839,482.378601 
	C519.227173,481.759949 530.185364,473.736206 535.665710,458.182007 
z"/>
<path fill="#000000" opacity="1.000000" stroke="none" 
	d="
M663.722229,696.415466 
	C660.280212,696.583191 659.716187,699.012817 658.931030,701.193848 
	C655.887573,709.647461 652.739319,718.066711 649.897278,726.587891 
	C648.467163,730.875793 646.011902,732.648376 641.411926,732.458923 
	C633.925415,732.150513 626.416687,732.411987 618.917969,732.358765 
	C613.465637,732.320007 612.658386,731.213501 614.432922,726.092346 
	C621.732117,705.027710 629.088562,683.983032 636.405396,662.924622 
	C647.490173,631.021423 658.636414,599.139099 669.541260,567.174561 
	C670.952271,563.038635 672.825745,561.388306 677.297852,561.515930 
	C688.287720,561.829529 699.295227,561.766296 710.289673,561.549316 
	C714.124817,561.473694 715.842407,562.931396 717.067932,566.478882 
	C733.035522,612.701050 749.143738,658.874634 765.205444,705.064331 
	C767.718323,712.290894 770.139771,719.549377 772.674133,726.768372 
	C774.034302,730.642883 772.892273,732.436218 768.664856,732.389832 
	C760.333496,732.298401 751.998901,732.278503 743.668701,732.415771 
	C740.337219,732.470764 738.525024,731.235168 737.443604,728.002747 
	C734.435120,719.010010 730.977112,710.166382 728.036072,701.153137 
	C726.842468,697.495361 724.898621,696.279175 721.137085,696.310120 
	C702.140442,696.466309 683.141907,696.391541 663.722229,696.415466 
M708.147156,644.155945 
	C703.386841,630.759155 698.626465,617.362366 693.866150,603.965576 
	C693.459351,603.986511 693.052551,604.007507 692.645752,604.028442 
	C685.260864,624.633118 677.876038,645.237732 670.422729,666.033264 
	C678.917969,667.234741 711.476562,666.856812 715.357178,665.544495 
	C713.817810,658.424255 710.573425,651.827393 708.147156,644.155945 
z"/>
<path fill="#000000" opacity="1.000000" stroke="none" 
	d="
M812.024536,560.701050 
	C816.851562,560.705078 821.191040,560.864624 825.514709,560.670044 
	C829.773499,560.478333 831.492432,562.197205 831.496826,566.510376 
	C831.513672,583.167358 831.840149,599.823914 831.871094,616.481018 
	C831.937683,652.307922 831.907349,688.135010 831.882568,723.962036 
	C831.876831,732.183167 831.618591,732.376526 823.522461,732.377930 
	C816.856995,732.379089 810.184875,732.211121 803.528625,732.460693 
	C799.845032,732.598816 798.325684,731.141541 798.310913,727.627014 
	C798.303894,725.965088 798.071594,724.303894 798.070618,722.642273 
	C798.041382,671.151611 798.028442,619.660950 798.012024,568.170288 
	C798.009949,561.656738 798.930786,560.736206 805.530457,560.700928 
	C807.530273,560.690247 809.530151,560.700684 812.024536,560.701050 
z"/>
</svg>